<?xml version="1.0" encoding="UTF-8" standalone="no"?>
<!-- Created with Inkscape (http://www.inkscape.org/) -->

<svg
   xmlns:dc="http://purl.org/dc/elements/1.1/"
   xmlns:cc="http://creativecommons.org/ns#"
   xmlns:rdf="http://www.w3.org/1999/02/22-rdf-syntax-ns#"
   xmlns:svg="http://www.w3.org/2000/svg"
   xmlns="http://www.w3.org/2000/svg"
   xmlns:sodipodi="http://sodipodi.sourceforge.net/DTD/sodipodi-0.dtd"
   xmlns:inkscape="http://www.inkscape.org/namespaces/inkscape"
   version="1.1"
   id="svg96"
   width="32.959999"
   height="35.52"
   viewBox="0 0 32.959999 35.52"
   sodipodi:docname="stefanlogo.svg"
   inkscape:version="0.92.4 5da689c313, 2019-01-14">
  <metadata
     id="metadata102">
    <rdf:RDF>
      <cc:Work
         rdf:about="">
        <dc:format>image/svg+xml</dc:format>
        <dc:type
           rdf:resource="http://purl.org/dc/dcmitype/StillImage" />
        <dc:title></dc:title>
      </cc:Work>
    </rdf:RDF>
  </metadata>
  <defs
     id="defs100" />
  <sodipodi:namedview
     pagecolor="#ffffff"
     bordercolor="#666666"
     borderopacity="1"
     objecttolerance="10"
     gridtolerance="10"
     guidetolerance="10"
     inkscape:pageopacity="0"
     inkscape:pageshadow="2"
     inkscape:window-width="1890"
     inkscape:window-height="1050"
     id="namedview98"
     showgrid="false"
     inkscape:zoom="24.268018"
     inkscape:cx="25.256983"
     inkscape:cy="17.76"
     inkscape:window-x="15"
     inkscape:window-y="15"
     inkscape:window-maximized="0"
     inkscape:current-layer="svg96" />
  <g
     id="g108"
     transform="translate(-0.45327165,-1.8130859)"
     style="fill:#1a1a1a;stroke:none"
     inkscape:export-xdpi="300.00003"
     inkscape:export-ydpi="300.00003">
    <path
       style="fill:#1a1a1a;stroke:none;stroke-width:0.31999999"
       d="M 0.65930396,19.614292 V 1.8542923 h 16.47999904 16.48 v 17.7599997 17.76 h -16.48 H 0.65930396 Z M 19.459303,34.896433 c -1.364,-0.05998 -3.596,-0.05998 -4.959999,0 -1.364,0.05998 -0.248,0.109062 2.479999,0.109062 2.728,0 3.844,-0.04908 2.48,-0.109062 z m 2.782677,-0.952387 c 0.116132,-0.302635 0.114395,-0.453493 -0.0039,-0.335238 -0.118255,0.118255 -0.424151,0.0059 -0.67977,-0.249754 -0.255619,-0.255619 -0.814476,-0.464762 -1.241905,-0.464762 -0.427428,0 -0.777143,-0.152498 -0.777143,-0.338885 0,-0.186387 0.18,-0.2353 0.4,-0.108696 0.232399,0.133739 0.288266,0.108132 0.133334,-0.06112 -0.146667,-0.160217 -0.427754,-0.291304 -0.624639,-0.291304 -0.196885,0 -0.404254,-0.576 -0.460821,-1.28 l -0.102848,-1.28 0.674177,0.88 c 0.370798,0.484 0.83369,0.88 1.028649,0.88 0.194959,0 0.07495,-0.223944 -0.26669,-0.497653 -0.600039,-0.48073 -0.597393,-0.486171 0.0778,-0.16 1.011345,0.488558 3.184437,0.414385 4.267442,-0.145659 1.369611,-0.708253 2.154123,-2.396688 1.113595,-2.396688 -0.264,0 -0.498377,-0.18 -0.520839,-0.4 -0.148365,-1.453151 -0.224801,-1.780502 -0.563535,-2.413433 -0.207979,-0.388611 -0.448775,-0.706567 -0.535102,-0.706567 -0.08633,0 0.06644,0.432 0.339476,0.96 0.27304,0.528 0.423664,0.96 0.334722,0.96 -0.08894,0 -0.450899,-0.566849 -0.804347,-1.259664 -0.640676,-1.255829 -0.640696,-1.26028 -0.0065,-1.461564 0.367081,-0.116507 0.645642,-0.497301 0.658621,-0.900336 0.02181,-0.677116 0.03149,-0.6789 0.317284,-0.05844 0.293873,0.638006 0.294538,0.638011 0.213388,0.0014 -0.06781,-0.531987 -0.366407,-0.6568 -1.788018,-0.747392 -0.938639,-0.05981 -2.232784,-0.314596 -2.87588,-0.566183 -1.036723,-0.405577 -1.060444,-0.437644 -0.209265,-0.282887 0.725875,0.131975 0.842937,0.0933 0.48,-0.158575 -0.264,-0.183215 -1.009359,-0.248729 -1.656353,-0.145589 -1.109989,0.17695 -1.164877,0.145549 -0.97294,-0.556603 0.162162,-0.593231 0.227017,-0.630571 0.319816,-0.184132 0.06402,0.308 0.258344,0.56 0.431826,0.56 0.173482,0 0.23604,-0.128443 0.139018,-0.285427 -0.10168,-0.164522 0.378431,-0.160765 1.13342,0.0089 1.494706,0.335824 6.050819,0.239389 5.832105,-0.123458 -0.07956,-0.132 0.0078,-0.24 0.194221,-0.24 0.186387,0 0.338885,-0.129913 0.338885,-0.288696 0,-0.510314 -1.955803,-0.990668 -4.127751,-1.013795 -1.382324,-0.01472 -1.891085,-0.109998 -1.472249,-0.275717 0.352,-0.139274 0.805435,-0.191335 1.007632,-0.115693 0.202198,0.07564 0.476447,-0.03853 0.609443,-0.253726 0.167768,-0.271455 0.104192,-0.311418 -0.207632,-0.130511 -0.247193,0.14341 -0.377443,0.17766 -0.289443,0.07611 0.088,-0.101551 0.281114,-0.187048 0.429141,-0.189995 0.148028,-0.0029 0.439973,-0.238984 0.648767,-0.524527 0.208794,-0.285543 0.59168,-0.551181 0.850859,-0.590307 0.704742,-0.10639 1.302219,-0.54412 1.127831,-0.826285 -0.08461,-0.136907 0.306788,-0.666956 0.869778,-1.177889 0.871264,-0.7907 0.929106,-0.809896 0.388622,-0.128968 l -0.634998,0.8 0.648992,-0.545334 c 0.356945,-0.299934 0.677276,-0.887086 0.711846,-1.304782 0.05777,-0.698055 -0.04735,-0.754858 -1.300354,-0.702659 -1.245494,0.05189 -2.780484,0.588625 -2.780484,0.972252 0,0.08633 0.424849,-0.06274 0.944109,-0.331259 0.51926,-0.26852 1.05926,-0.481513 1.2,-0.473318 0.14074,0.0082 -0.464109,0.396855 -1.344109,0.86369 -0.88,0.466834 -1.782278,0.813294 -2.005063,0.76991 -0.222785,-0.04339 -0.366785,0.08883 -0.32,0.293802 0.04678,0.204976 -0.167755,0.41519 -0.476755,0.467143 -0.526513,0.08852 -0.524757,0.04092 0.02793,-0.757493 0.32436,-0.468573 0.684161,-1.113079 0.799558,-1.432234 0.121656,-0.336467 0.365988,-0.48376 0.581514,-0.350557 0.228685,0.141335 0.285423,0.09012 0.147462,-0.133105 -0.123332,-0.199556 -0.08026,-0.631863 0.09572,-0.960682 0.482233,-0.90106 1.711822,-5.839854 1.505331,-6.0463449 -0.09913,-0.099126 -0.399709,0.00192 -0.667962,0.2245533 -0.268252,0.2226304 -0.487732,0.2882093 -0.487732,0.1457312 0,-0.1424784 -0.426879,0.1499251 -0.948621,0.6497856 -0.521742,0.4998605 -0.882869,1.0152269 -0.802505,1.1452592 0.08036,0.1300323 -0.356756,1.0715251 -0.971378,2.0922066 -0.614623,1.020682 -1.134533,2.008256 -1.155356,2.19461 -0.02082,0.186354 -0.159597,-0.09318 -0.308384,-0.621175 -0.240763,-0.85439 -0.258151,-0.814872 -0.158058,0.359232 0.06186,0.725577 0.0029,1.496554 -0.13107,1.713281 C 18.44995,13.903578 18.245818,11.869924 18.130269,9.1676196 17.874178,3.1785561 17.841332,2.8370949 17.539267,3.023781 c -0.132,0.081581 -0.24,-0.00417 -0.24,-0.1905573 0,-0.6934663 -0.578307,-0.3082503 -0.787296,0.524425 C 16.372176,3.914736 16.21083,4.0841888 16.05707,3.8353993 15.926026,3.6233667 15.824502,4.062877 15.831459,4.8120888 c 0.007,0.7492118 -0.0434,2.3702035 -0.111912,3.6022035 l -0.124561,2.2399997 -0.215682,-1.7599997 -0.215683,-1.76 -0.05216,1.6611146 c -0.02869,0.9136131 0.09184,1.7501111 0.267841,1.8588851 0.176,0.108774 0.317794,0.945273 0.315099,1.858886 -0.0033,1.102949 -0.101154,1.509053 -0.291355,1.208576 -0.157551,-0.248896 -0.229376,-0.968896 -0.159611,-1.6 0.108199,-0.978779 0.08516,-1.029858 -0.156746,-0.347462 -0.155976,0.44 -0.297946,0.647529 -0.31549,0.461175 -0.01754,-0.186354 -0.53477,-1.173928 -1.149393,-2.19461 C 13.007186,9.0201755 12.570066,8.0786827 12.65043,7.9486504 12.730794,7.8186181 12.369667,7.3032517 11.847925,6.8033912 11.326183,6.3035307 10.899304,6.0111272 10.899304,6.1536056 c 0,0.1424781 -0.21948,0.076899 -0.487733,-0.1457312 C 10.143317,5.785244 9.8427344,5.684195 9.7436083,5.7833211 9.5371175,5.989812 10.766706,10.928606 11.248939,11.829666 c 0.175978,0.328819 0.219053,0.761126 0.09572,0.960682 -0.137961,0.223226 -0.08122,0.27444 0.147462,0.133105 0.215526,-0.133203 0.459858,0.01409 0.581515,0.350557 0.115396,0.319155 0.475198,0.963661 0.799558,1.432234 0.552685,0.798414 0.55444,0.846016 0.02793,0.757493 -0.309,-0.05195 -0.523539,-0.262167 -0.476755,-0.467143 0.04678,-0.204976 -0.09722,-0.337187 -0.32,-0.293802 -0.222783,0.04338 -1.125061,-0.303076 -2.005061,-0.76991 -0.8800003,-0.466835 -1.4848492,-0.855495 -1.3441091,-0.86369 0.1407402,-0.0082 0.6807402,0.204798 1.2,0.473318 0.5192601,0.26852 0.9441091,0.417586 0.9441091,0.331259 0,-0.383627 -1.5349904,-0.920367 -2.7804844,-0.972252 -1.2530051,-0.0522 -1.3581257,0.0046 -1.3003533,0.702659 0.03457,0.417696 0.3549002,1.004848 0.7118458,1.304782 l 0.6489916,0.545334 -0.6349974,-0.8 C 7.0038218,13.973364 7.0616641,13.99256 7.9329277,14.78326 c 0.5629904,0.510933 0.9543904,1.040982 0.8697779,1.177889 -0.1743875,0.282165 0.4230896,0.719895 1.1278317,0.826285 0.2591787,0.03913 0.6334167,0.292937 0.8316407,0.564024 0.198224,0.271088 0.439749,0.413544 0.536723,0.31657 0.09697,-0.09697 0.284985,-4.8e-4 0.417802,0.214417 0.164486,0.266144 0.10792,0.308185 -0.177399,0.131847 -0.28551,-0.176454 -0.341892,-0.134306 -0.177075,0.132373 0.132996,0.215192 0.407245,0.329369 0.609443,0.253726 0.202197,-0.07564 0.655632,-0.02358 1.007632,0.115693 0.418836,0.165719 -0.08993,0.260998 -1.472249,0.275717 -2.1719484,0.02313 -4.1277512,0.503481 -4.1277512,1.013795 0,0.158783 0.1524985,0.288696 0.3388854,0.288696 0.1863869,0 0.2737862,0.108 0.1942205,0.24 -0.2187133,0.362847 4.3373993,0.459282 5.8321063,0.123444 0.754989,-0.169635 1.2351,-0.173392 1.13342,-0.0089 -0.09702,0.156985 -0.03446,0.285427 0.139018,0.285427 0.173482,0 0.367804,-0.252 0.431827,-0.56 0.09225,-0.443812 0.15901,-0.404071 0.321753,0.19154 0.194825,0.713026 0.144964,0.741116 -0.972941,0.548128 -0.700934,-0.121004 -1.012011,-0.09111 -0.767852,0.0738 0.544988,0.368084 -1.472862,0.987753 -3.607108,1.107722 -1.3156663,0.07396 -1.6108579,0.201424 -1.6772835,0.724282 -0.079599,0.626551 -0.076905,0.626483 0.2141792,-0.0055 0.2522713,-0.547686 0.2980364,-0.559616 0.3172838,-0.08271 0.012371,0.306508 0.2990006,0.729971 0.6369565,0.941028 0.599229,0.374225 0.594979,0.422194 -0.1713927,1.934556 -0.4322217,0.852949 -0.911302,1.473287 -1.0646223,1.37853 -0.1533207,-0.09476 -0.2033991,0.115914 -0.1112855,0.468157 0.1165136,0.445548 0.010053,0.640441 -0.3498428,0.640441 -1.0738704,0 -0.3223991,1.673407 1.0762729,2.396688 1.3225114,0.683898 3.4776524,0.608192 4.7488264,-0.166816 l 1.062421,-0.647735 -0.117782,1.208931 c -0.06478,0.664913 -0.27887,1.208932 -0.475755,1.208932 -0.196885,0 -0.477972,0.131087 -0.624639,0.291304 -0.154932,0.169247 -0.09906,0.194854 0.133334,0.06112 0.22,-0.126604 0.4,-0.07769 0.4,0.108696 0,0.186387 -0.43652,0.338885 -0.970044,0.338885 -0.565406,0 -1.046582,0.199457 -1.153531,0.478162 -0.100918,0.262989 -0.310749,0.39951 -0.466291,0.30338 -0.155542,-0.09613 -0.197047,0.0487 -0.09223,0.321838 0.161095,0.419807 0.971913,0.49662 5.242098,0.49662 4.481669,0 5.075347,-0.06207 5.262677,-0.550246 z m -6.907667,-3.369754 c -0.06325,-0.572 -0.03267,-2.48 0.06796,-4.24 l 0.182971,-3.2 0.05703,4.24 c 0.055,4.089204 -0.06813,5.368686 -0.307962,3.2 z m 3.018819,-3.12 0.02023,-4.32 0.182971,3.2 c 0.100633,1.76 0.09153,3.704 -0.02023,4.32 -0.11176,0.616 -0.194097,-0.824 -0.182971,-3.2 z M 10.837731,26.90303 c 0.558935,-1.172097 0.986015,-1.219194 1.3807,-0.152258 0.226597,0.612551 0.147794,0.707645 -0.609439,0.735418 l -0.869688,0.0319 0.8,0.261835 c 0.752352,0.24624 0.74022,0.25951 -0.203684,0.222803 l -1.003684,-0.03903 z m 2.72614,-0.845768 -1.015434,-2.003866 1.223434,-0.326553 1.223433,-0.326553 v 2.347001 c 0,1.290851 -0.0936,2.339539 -0.208,2.330419 -0.1144,-0.0091 -0.664945,-0.918323 -1.223433,-2.020448 z m 0.312904,-0.678951 c -0.292696,-0.61379 -0.588985,-1.059172 -0.658419,-0.989738 -0.146387,0.146387 0.825024,2.105719 1.043988,2.105719 0.08063,0 -0.09287,-0.502191 -0.385569,-1.115981 z m 5.086528,0.294025 c 0,-2.127519 0.06419,-2.394834 0.528,-2.19885 0.2904,0.122709 0.846457,0.292317 1.235681,0.376907 l 0.70768,0.153799 -0.799073,1.576894 c -0.43949,0.867292 -0.924517,1.499366 -1.077837,1.404609 -0.153321,-0.09476 -0.203399,0.115913 -0.111286,0.468156 0.09211,0.352243 0.02108,0.640441 -0.157843,0.640441 -0.191773,0 -0.325322,-0.994238 -0.325322,-2.421956 z m 1.216,0.181956 c 0.188385,-0.352 0.270518,-0.64 0.182518,-0.64 -0.088,0 -0.314133,0.288 -0.502518,0.64 -0.188384,0.352 -0.270517,0.64 -0.182517,0.64 0.088,0 0.314133,-0.288 0.502517,-0.64 z m 1.538428,1.048738 c 0.558934,-1.172097 0.986015,-1.219194 1.3807,-0.152258 0.226597,0.612551 0.147794,0.707645 -0.609439,0.735418 l -0.869689,0.0319 0.8,0.261835 c 0.752352,0.24624 0.740221,0.25951 -0.203684,0.222803 l -1.003683,-0.03903 z M 13.9089,16.494292 l -0.609596,-0.72 0.72,0.609596 c 0.676622,0.57287 0.865677,0.830404 0.609596,0.830404 -0.06072,0 -0.384723,-0.324 -0.72,-0.72 z m 5.790403,0.08 c 0.318556,-0.352 0.651192,-0.64 0.739192,-0.64 0.088,0 -0.100636,0.288 -0.419192,0.64 -0.318555,0.352 -0.651192,0.64 -0.739192,0.64 -0.088,0 0.100637,-0.288 0.419192,-0.64 z m -8.184219,-9.5199997 -0.77578,-0.88 0.88,0.7757805 c 0.484,0.4266793 0.88,0.8226793 0.88,0.88 0,0.2509677 -0.259136,0.046712 -0.98422,-0.7757805 z m 10.584219,0.08 c 0.413359,-0.44 0.823561,-0.8 0.911561,-0.8 0.088,0 -0.178202,0.36 -0.591561,0.8 -0.413358,0.44 -0.823561,0.8 -0.911561,0.8 -0.088,0 0.178203,-0.36 0.591561,-0.8 z M 12.259304,31.388458 c -0.396,-0.07627 -1.044,-0.07627 -1.44,0 -0.396,0.07627 -0.072,0.138678 0.72,0.138678 0.792,0 1.116,-0.0624 0.72,-0.138678 z m 10.879999,0 c -0.396,-0.07627 -1.044,-0.07627 -1.44,0 -0.396,0.07627 -0.072,0.138678 0.72,0.138678 0.792,0 1.116,-0.0624 0.72,-0.138678 z M 9.9393037,31.168529 c 0,-0.06917 -0.2234791,-0.211521 -0.4966202,-0.316335 -0.284776,-0.109279 -0.413223,-0.05563 -0.3011145,0.125764 0.1879225,0.304065 0.7977347,0.449743 0.7977347,0.190571 z m 4.1600003,-0.194237 c 0.264,-0.17061 0.336,-0.310199 0.16,-0.310199 -0.176,0 -0.536,0.139589 -0.8,0.310199 -0.264,0.17061 -0.336,0.3102 -0.16,0.3102 0.176,0 0.536,-0.13959 0.8,-0.3102 z m 10.717734,0.0037 c 0.112108,-0.181394 -0.01634,-0.235041 -0.301115,-0.125762 -0.554373,0.212733 -0.655803,0.442098 -0.195505,0.442098 0.165613,0 0.389092,-0.14235 0.49662,-0.316334 z m 2.072465,-2.403664 c 0,-0.176 -0.13959,-0.104 -0.3102,0.16 -0.17061,0.264 -0.310199,0.624 -0.310199,0.8 0,0.176 0.139589,0.104 0.310199,-0.16 0.17061,-0.264 0.3102,-0.624 0.3102,-0.8 z M 7.4897284,28.880491 C 7.3855092,28.608901 7.231609,28.45532 7.1477281,28.539201 c -0.083881,0.08388 -0.057593,0.306092 0.058418,0.493801 0.315536,0.510548 0.4999616,0.411364 0.2835823,-0.152511 z m 1.8095753,-3.026199 c 0.1883846,-0.352 0.2705177,-0.64 0.1825178,-0.64 -0.088,0 -0.3141332,0.288 -0.5025178,0.64 -0.1883846,0.352 -0.2705177,0.64 -0.1825177,0.64 0.088,0 0.3141331,-0.288 0.5025177,-0.64 z m -0.8,-7.04 c 0.4219968,-0.181338 0.4764976,-0.281009 0.16,-0.292608 -0.264,-0.0097 -0.696,0.121998 -0.96,0.292608 -0.5849491,0.378023 -0.079707,0.378023 0.8,0 z m 17.7599993,0 c -0.264,-0.17061 -0.696,-0.302284 -0.96,-0.292608 -0.316497,0.0116 -0.261997,0.11127 0.16,0.292608 0.879707,0.378023 1.384949,0.378023 0.8,0 z m -15.599999,-0.53193 c -0.22,-0.08877 -0.58,-0.08877 -0.8000003,0 -0.22,0.08877 -0.04,0.161404 0.4000003,0.161404 0.44,0 0.62,-0.07263 0.4,-0.161404 z m 13.439999,0 c -0.22,-0.08877 -0.58,-0.08877 -0.8,0 -0.22,0.08877 -0.04,0.161404 0.4,0.161404 0.44,0 0.62,-0.07263 0.4,-0.161404 z M 11.009728,11.920491 c -0.104219,-0.27159 -0.258119,-0.425171 -0.342,-0.34129 -0.08388,0.08388 -0.05759,0.306092 0.05842,0.493801 0.315536,0.510548 0.499961,0.411364 0.283582,-0.152511 z m 12.307774,-0.314666 c -0.09852,-0.09852 -0.277455,0.07908 -0.397625,0.394666 -0.173659,0.456064 -0.136903,0.49282 0.179134,0.179135 0.218694,-0.217067 0.317015,-0.475277 0.218491,-0.573801 z M 14.428841,10.192114 C 14.245703,9.8499163 13.9377,9.4721864 13.74439,9.3527147 13.551081,9.233243 13.640417,9.5132229 13.942914,9.9748926 c 0.640519,0.9775554 0.972197,1.1258234 0.485927,0.2172214 z M 20.015693,9.9748926 C 20.31819,9.5132229 20.407526,9.233243 20.214217,9.3527147 19.84481,9.5810203 19.09976,10.814292 19.331241,10.814292 c 0.07395,0 0.381954,-0.37773 0.684452,-0.8393994 z M 18.808505,7.6942923 c -0.07332,-0.484 -0.133309,-0.088 -0.133309,0.88 0,0.968 0.05999,1.364 0.133309,0.88 0.07332,-0.484 0.07332,-1.276 0,-1.76 z m -9.3492013,-1.04 c -0.2882438,-1.3123654 -0.5467683,-1.053841 -0.28,0.28 0.1124445,0.5622221 0.2711475,0.955519 0.3526736,0.873993 0.081526,-0.081526 0.048823,-0.6008228 -0.072674,-1.153993 z m 15.4656103,-0.64 c 0.0058,-0.2940746 -0.09712,-0.2320992 -0.265611,0.16 -0.151259,0.352 -0.270784,0.928 -0.265611,1.28 0.0076,0.5144912 0.05965,0.4831139 0.265611,-0.16 0.140913,-0.44 0.260438,-1.016 0.265611,-1.28 z"
       id="path122"
       inkscape:connector-curvature="0" />
    <path
       style="fill:#1a1a1a;stroke:none;stroke-width:0.31999999"
       d="m 10.819304,31.388458 c 0.396,-0.07627 1.044,-0.07627 1.44,0 0.396,0.07627 0.072,0.138678 -0.72,0.138678 -0.792,0 -1.116,-0.0624 -0.72,-0.138678 z m 7.882893,-0.235474 c -0.09736,-0.253719 -0.120623,-0.721719 -0.05169,-1.04 0.07826,-0.361347 0.187792,-0.18809 0.291642,0.461308 0.174272,1.089764 0.061,1.362949 -0.239949,0.578692 z m 2.997106,0.235474 c 0.396,-0.07627 1.044,-0.07627 1.44,0 0.396,0.07627 0.072,0.138678 -0.72,0.138678 -0.792,0 -1.116,-0.0624 -0.72,-0.138678 z m 4.56,-1.99528 c 0,-0.165613 0.142351,-0.389092 0.316335,-0.49662 0.181395,-0.112109 0.235042,0.01634 0.125763,0.301114 -0.212733,0.554374 -0.442098,0.655804 -0.442098,0.195506 z m -7.574995,-3.378886 c 0.0014,-1.232 0.05926,-1.696788 0.128531,-1.032862 0.06927,0.663925 0.06811,1.671925 -0.0026,2.24 -0.07068,0.568074 -0.127358,0.02486 -0.125939,-1.207138 z m -9.8444305,0.0662 c 0.1201699,-0.31559 0.2991014,-0.49319 0.3976252,-0.394666 0.098524,0.09852 2.029e-4,0.356734 -0.2184908,0.573801 -0.3160371,0.313685 -0.3527936,0.276929 -0.1791344,-0.179135 z m 5.0862675,0.07251 c -0.11601,-0.187709 -0.142298,-0.40992 -0.05842,-0.493801 0.08388,-0.08388 0.237781,0.0697 0.342,0.34129 0.216379,0.563875 0.03195,0.663059 -0.283583,0.152511 z m 10.88,0 c -0.11601,-0.187709 -0.142298,-0.40992 -0.05842,-0.493801 0.08388,-0.08388 0.237781,0.0697 0.342,0.34129 0.216379,0.563875 0.03195,0.663059 -0.283583,0.152511 z m -11.52,-1.28 c -0.11601,-0.187709 -0.142298,-0.40992 -0.05842,-0.493801 0.08388,-0.08388 0.237781,0.0697 0.342,0.34129 0.216379,0.563875 0.03195,0.663059 -0.283583,0.152511 z m 1.133159,-3.799824 c 0,-0.165613 0.14235,-0.389092 0.316334,-0.49662 0.181395,-0.112109 0.235042,0.01634 0.125764,0.301114 -0.212733,0.554374 -0.442098,0.655804 -0.442098,0.195506 z m 4.660573,-0.245085 c -0.173659,-0.456063 -0.136903,-0.49282 0.179135,-0.179134 0.218693,0.217067 0.317014,0.475277 0.21849,0.573801 -0.09852,0.09852 -0.277455,-0.07908 -0.397625,-0.394667 z M 9.8593037,18.282362 c 0.2200003,-0.08877 0.5800003,-0.08877 0.8000003,0 0.22,0.08877 0.04,0.161404 -0.4,0.161404 -0.4400003,0 -0.6200003,-0.07263 -0.4000003,-0.161404 z m 13.4399993,0 c 0.22,-0.08877 0.58,-0.08877 0.8,0 0.22,0.08877 0.04,0.161404 -0.4,0.161404 -0.44,0 -0.62,-0.07263 -0.4,-0.161404 z M 8.9793037,13.054292 c -0.264,-0.17061 -0.336,-0.310199 -0.16,-0.310199 0.176,0 0.536,0.139589 0.8,0.310199 0.264,0.17061 0.336,0.3102 0.16,0.3102 -0.176,0 -0.536,-0.13959 -0.8,-0.3102 z m 15.3599993,0 c 0.264,-0.17061 0.624,-0.310199 0.8,-0.310199 0.176,0 0.104,0.139589 -0.16,0.310199 -0.264,0.17061 -0.624,0.3102 -0.8,0.3102 -0.176,0 -0.104,-0.13959 0.16,-0.3102 z m -5.734737,-1.786666 c 0.01535,-0.372782 0.09118,-0.448608 0.193334,-0.193334 0.09244,0.231 0.08107,0.507 -0.02526,0.613334 -0.106334,0.106333 -0.181965,-0.08267 -0.168071,-0.42 z m -4.358421,-0.794624 c -0.11601,-0.187709 -0.142298,-0.40992 -0.05842,-0.4938006 0.08388,-0.083881 0.237781,0.0697 0.342,0.3412896 0.216379,0.563875 0.03195,0.663059 -0.283583,0.152511 z m 5.153732,-0.07251 c 0.12017,-0.31559 0.299102,-0.4931904 0.397625,-0.394666 0.09852,0.09852 2.03e-4,0.356734 -0.21849,0.573801 -0.316038,0.313685 -0.352794,0.276929 -0.179135,-0.179135 z m -4.31531,-0.4128653 c 0.01535,-0.3727817 0.09118,-0.448608 0.193333,-0.1933334 0.09244,0.2309997 0.08107,0.5069997 -0.02526,0.6133337 -0.106333,0.106333 -0.181965,-0.08267 -0.16807,-0.4200003 z m 3.519999,-0.32 c 0.01535,-0.3727817 0.09118,-0.448608 0.193334,-0.1933334 0.09244,0.231 0.08107,0.507 -0.02526,0.6133337 -0.106334,0.106333 -0.181965,-0.08267 -0.168071,-0.4200003 z M 15.121687,8.0942923 c 0.0065,-0.528 0.07824,-0.7052595 0.159374,-0.3939098 0.08113,0.3113495 0.0758,0.7433495 -0.01186,0.96 -0.08766,0.2166503 -0.154039,-0.03809 -0.147518,-0.5660902 z m 3.52,-0.32 c 0.0065,-0.528 0.07824,-0.7052595 0.159374,-0.3939098 0.08113,0.3113495 0.0758,0.7433495 -0.01186,0.96 -0.08766,0.2166503 -0.15404,-0.03809 -0.147518,-0.5660902 z M 9.0897283,6.4804913 C 8.9855091,6.2089006 8.9717402,5.9151893 9.0591299,5.8277992 9.14652,5.7404088 9.2948285,5.9626193 9.388704,6.3216001 9.588112,7.0841374 9.3665536,7.2018853 9.089728,6.4804913 Z M 24.573291,6.3086414 C 24.686446,5.8759361 24.8315,5.7308824 24.911387,5.9705451 24.988341,6.2014062 24.89916,6.5424357 24.713207,6.7283883 24.475745,6.9658501 24.4341,6.8409118 24.573291,6.3086414 Z M 15.846145,4.0730023 c -0.11601,-0.1877095 -0.142298,-0.4099199 -0.05842,-0.4938009 0.08388,-0.083881 0.237781,0.069699 0.342,0.3412899 0.216379,0.5638744 0.03195,0.6630587 -0.283583,0.152511 z"
       id="path120"
       inkscape:connector-curvature="0" />
    <path
       style="fill:#1a1a1a;stroke:none;stroke-width:0.31999999"
       d="m 14.499304,34.896433 c 1.363999,-0.05998 3.595999,-0.05998 4.959999,0 1.364,0.05998 0.248,0.109062 -2.48,0.109062 -2.727999,0 -3.843999,-0.04908 -2.479999,-0.109062 z m 0.63424,-4.242141 c 0,-0.616 0.06585,-0.868 0.146344,-0.56 0.08049,0.308 0.08049,0.812 0,1.12 -0.08049,0.308 -0.146344,0.056 -0.146344,-0.56 z m -0.04407,-2.64 c -0.198542,-0.725001 -0.0596,-4.498715 0.174276,-4.73342 0.154155,-0.154701 0.235715,0.527493 0.185125,1.548444 -0.104619,2.111334 -0.264767,3.530546 -0.359401,3.184976 z m 1.452211,-9.451428 c -0.08546,-0.138286 0.111464,-0.251429 0.43762,-0.251429 0.326157,0 0.523086,0.113143 0.437621,0.251429 -0.08547,0.138286 -0.282395,0.251428 -0.437621,0.251428 -0.155225,0 -0.352155,-0.113142 -0.43762,-0.251428 z m -4.010254,-3.363125 c -0.404774,-0.674019 -0.397955,-0.680838 0.153066,-0.153066 0.317192,0.30381 0.507834,0.621261 0.423647,0.705447 -0.08419,0.08419 -0.343707,-0.164385 -0.576713,-0.552381 z m 8.287874,0.507069 c 0,-0.183783 0.252,-0.531783 0.56,-0.773333 0.518002,-0.406245 0.524793,-0.391185 0.09055,0.200817 -0.258198,0.352 -0.510198,0.7 -0.56,0.773334 -0.0498,0.07333 -0.09055,-0.01703 -0.09055,-0.200818 z"
       id="path118"
       inkscape:connector-curvature="0" />
    <path
       style="fill:#1a1a1a;stroke:none;stroke-width:0.31999999"
       d="m 15.699304,19.134292 c 0,-0.176 0.152498,-0.32 0.338885,-0.32 0.186387,0 0.249889,0.144 0.141114,0.32 -0.108774,0.176 -0.261272,0.32 -0.338885,0.32 -0.07761,0 -0.141114,-0.144 -0.141114,-0.32 z"
       id="path116"
       inkscape:connector-curvature="0" />
    <path
       style="fill:#1a1a1a;stroke:none;stroke-width:0.31999999"
       d="m 12.179304,33.694292 c 0.2191,-0.264 0.760219,-0.48 1.202487,-0.48 0.451018,0 1.136402,-0.358535 1.560818,-0.816487 0.717607,-0.774311 0.756695,-1.038787 0.756695,-5.12 0,-2.366932 -0.122512,-4.303513 -0.272249,-4.303513 -0.149737,0 -0.761737,0.156683 -1.36,0.348183 -0.598263,0.191501 -1.299716,0.415247 -1.558783,0.497215 -0.278207,0.08802 -0.34233,0.240232 -0.156639,0.371817 0.172916,0.122532 0.67288,1.004127 1.111032,1.959101 0.438151,0.954974 1.002241,1.94229 1.253532,2.194036 0.33162,0.332221 0.366878,0.601933 0.12859,0.983685 -0.878495,1.407406 -3.998212,1.779191 -5.7854833,0.68947 -0.974048,-0.593888 -1.3630736,-1.41509 -0.7848902,-1.65684 0.1403104,-0.05867 0.7792412,-1.067124 1.4198463,-2.241017 1.1645932,-2.134087 1.1646532,-2.134406 0.4888322,-2.583134 -1.0186933,-0.676387 -0.5488456,-1.567527 0.695278,-1.318703 0.575309,0.115062 1.485204,-0.01609 2.258654,-0.325564 0.712377,-0.285037 1.729383,-0.518249 2.260014,-0.518249 0.853536,0 0.926719,-0.07112 0.634672,-0.616818 -0.382452,-0.714618 -0.16206,-1.497282 0.492336,-1.748396 1.100709,-0.422383 1.978873,0.672088 1.402851,1.748396 -0.292626,0.546776 -0.218654,0.616818 0.651426,0.616818 0.539845,0 1.498497,0.216 2.130338,0.48 0.631841,0.264 1.707216,0.48 2.389722,0.48 1.369322,0 1.713402,0.684619 0.634325,1.262123 -0.576308,0.30843 -0.549515,0.432817 0.536625,2.491258 0.628772,1.191641 1.261739,2.214619 1.406595,2.273286 0.587498,0.237936 0.202126,1.060085 -0.776625,1.65684 -1.364862,0.832173 -3.595138,0.832173 -4.96,0 -0.974048,-0.593888 -1.363073,-1.41509 -0.78489,-1.65684 0.140311,-0.05867 0.788112,-1.083262 1.439559,-2.276879 0.810417,-1.484891 1.058274,-2.208614 0.78489,-2.291817 -0.219757,-0.06688 -0.889047,-0.278287 -1.48731,-0.469788 -0.598263,-0.1915 -1.210263,-0.348183 -1.36,-0.348183 -0.149737,0 -0.272249,1.936581 -0.272249,4.303513 0,4.038237 0.04505,4.352121 0.730809,5.092068 0.401944,0.433706 1.146839,0.837125 1.655322,0.896487 0.508482,0.05936 0.983618,0.287932 1.055858,0.507932 0.101331,0.308595 -1.017108,0.4 -4.894504,0.4 -4.431139,0 -4.97871,-0.0568 -4.627484,-0.48 z m 0.96,-5.431439 c 0,-0.33962 -1.421755,-3.048561 -1.6,-3.048561 -0.178245,0 -1.6000003,2.708941 -1.6000003,3.048561 0,0.08329 0.7200003,0.151439 1.6000003,0.151439 0.88,0 1.6,-0.06815 1.6,-0.151439 z m 10.879999,0 c 0,-0.33962 -1.421755,-3.048561 -1.6,-3.048561 -0.178245,0 -1.6,2.708941 -1.6,3.048561 0,0.08329 0.72,0.151439 1.6,0.151439 0.88,0 1.6,-0.06815 1.6,-0.151439 z M 8.0200269,19.935164 C 7.7269447,19.582021 7.9409979,19.457263 9.1514074,19.275751 10.719795,19.040556 14.63625,19.244571 14.97056,19.578882 15.436399,20.044721 14.499257,20.243106 11.541435,20.3048 9.2016141,20.3536 8.2876836,20.25767 8.0200269,19.935164 Z m 11.7592761,0.259482 c -2.129196,-0.345665 -0.24197,-1.060354 2.8,-1.060354 2.403102,0 3.764849,0.312187 3.380713,0.775043 -0.310726,0.374402 -4.453872,0.565656 -6.180713,0.285311 z M 14.033904,18.682974 C 11.596861,17.81287 6.5483607,13.778568 7.1471892,13.17974 c 0.3702714,-0.370271 4.8279468,1.986543 6.3983458,3.382864 1.481036,1.316864 2.436433,2.586231 1.925027,2.557643 -0.138192,-0.0077 -0.784689,-0.204498 -1.436658,-0.437273 z m 4.522393,-0.145694 c 0.635416,-1.187286 3.402091,-3.340865 5.715079,-4.448617 1.282639,-0.614291 2.434639,-1.013058 2.559999,-0.886149 0.125361,0.126909 -0.641001,1.045476 -1.703027,2.041261 -1.950209,1.828571 -4.359011,3.312605 -6.005819,3.700112 -0.811259,0.190896 -0.865255,0.152123 -0.566232,-0.406607 z m -3.988855,-1.882988 c -0.803672,-1.012 -2.015042,-2.992 -2.691935,-4.4 -1.174333,-2.4427232 -2.1849147,-5.7779552 -1.851696,-6.1111735 0.258565,-0.2585651 2.700455,2.6903162 3.69322,4.4600155 1.251468,2.230861 3.03924,7.891158 2.492377,7.891158 -0.09941,0 -0.838295,-0.828 -1.641966,-1.84 z m 3.192623,0.873722 c 0.426238,-2.119274 1.559068,-5.280536 2.481511,-6.92488 0.992765,-1.7696993 3.434655,-4.7185806 3.69322,-4.4600155 0.27857,0.27857 -0.615934,3.4956042 -1.552089,5.5820005 -0.927303,2.066669 -3.298092,5.631437 -4.296104,6.459714 -0.507944,0.421556 -0.533206,0.370742 -0.326538,-0.656819 z M 16.288162,16.334292 C 15.434752,12.564275 15.93236,3.1342923 16.984709,3.1342923 c 0.575807,0 1.111726,3.5661142 1.106066,7.3599997 -0.0058,3.887253 -0.554696,7.68 -1.111472,7.68 -0.151043,0 -0.462057,-0.828 -0.691141,-1.84 z"
       id="path114"
       inkscape:connector-curvature="0" />
    <path
       style="fill:#1a1a1a;stroke:none;stroke-width:0.31999999"
       d="m 14.659304,34.256689 c 1.275999,-0.06074 3.363999,-0.06074 4.639999,0 1.276,0.06074 0.232,0.110438 -2.32,0.110438 -2.551999,0 -3.595999,-0.0497 -2.319999,-0.110438 z"
       id="path112"
       inkscape:connector-curvature="0" />
    <path
       style="fill:#1a1a1a;stroke:none;stroke-width:0.31999999"
       d="m 10.663704,28.184666 c 0.486419,-0.07355 1.206419,-0.07159 1.6,0.0044 0.393579,0.07596 -0.0044,0.136136 -0.8844,0.133734 -0.88,-0.0024 -1.20202,-0.06455 -0.7156,-0.138102 z m 10.879999,0 c 0.48642,-0.07355 1.20642,-0.07159 1.6,0.0044 0.39358,0.07596 -0.0044,0.136136 -0.8844,0.133734 -0.88,-0.0024 -1.20202,-0.06455 -0.7156,-0.138102 z"
       id="path110"
       inkscape:connector-curvature="0" />
  </g>
</svg>
